<svg version="1.1" viewBox="0 0 640 640" xmlns="http://www.w3.org/2000/svg">
<path d="m278.3 69.037q30.211-8.6432 62.581 17.286 2.158 6.4823-2.158 25.929-8.6319 41.055-10.79 95.07 28.054-6.4823 69.055-17.286 21.58-6.4823 30.211-8.6432 25.896-4.3216 47.475 10.804 12.947 15.125-15.106 19.447-21.58 2.1608-56.108 10.804-41.001 6.4823-73.371 12.964 114.37 162.06 263.27 194.47 15.106 4.3216 17.264 8.6432 0 4.3216-15.106 6.4823-79.845 6.4823-99.264 4.3216-23.737-2.1608-34.527-17.286-32.369-38.895-77.687-97.237-34.527-45.377-56.108-71.306 0 25.929 2.158 114.52 2.158 58.341 2.158 95.07 0 71.306-15.106 75.627-15.106-4.3216-23.737-45.377 0-4.3216 2.158-15.125 17.264-69.145 10.79-237.68-51.791 155.58-200.69 231.2-12.947 6.4823-15.106 4.3216-2.158-2.1608 10.79-10.804 135.96-101.56 181.27-233.36-45.318 10.804-84.16 8.6432-51.791-4.3216-17.264-15.125 66.897-10.804 123-23.768 2.158-92.913-21.58-127.49-4.3159-8.6432-4.3159-15.125z" stroke-width=".92133"/>
<ellipse cx="96" cy="485.2" rx="54.8" ry="54.4" fill="none" stroke="#000" stroke-dasharray="19.704, 19.704" stroke-linecap="round" stroke-miterlimit="9.5" stroke-width="3.284"/>
<ellipse cx="582" cy="435.2" rx="54.8" ry="54.4" fill="none" stroke="#000" stroke-dasharray="19.704, 19.704" stroke-linecap="round" stroke-miterlimit="9.5" stroke-width="3.284"/>
</svg>
