<svg version="1.1" viewBox="0 0 300 300" xmlns="http://www.w3.org/2000/svg">
<defs>
<marker id="ArrowWideHeavy" overflow="visible" markerHeight="1" markerWidth="1" orient="auto-start-reverse" preserveAspectRatio="xMidYMid" viewBox="0 0 1 1">
<path d="m1 0-3 3h-2l3-3-3-3h2z" fill="context-stroke" fill-rule="evenodd"/>
</marker>
</defs>
<path d="m73.485 284.02c-4.9992-1.3185-9.3079-3.3771-13.906-5.5591-5.153-2.6226-5.5252-6.9629-0.27237-8.2764 1.8581-0.45831 21.554-6.6678 47.88-13.152 37.677-9.2795 66.8-13.472 100.04-18.897 19.595-2.744 41.176-9.8761 59.45-1.1277 14.9 7.133 1.645 16.504-9.0238 19.151-5.3999 1.3398-7.6931 1.516-25.096 1.9756-23.264-0.58319-47.651 4.3908-66.267 8.5999-26.392 5.9671-55.587 18.402-80.771 18.473-5.293-0.0218-8.7379-0.36137-12.042-1.187zm7.6864-89.179c-8.1713-3.1145-29.872-17.148-19.436-23.977 4.341-2.8409 8.8711-3.9932 17.586-5.0698 35.296-6.9446 74.22-15.043 102.97-19.94 25.799-4.3654 38.076-5.4397 46.133-5.3816 7.7944 0.0562 20.776 0.61262 24.498 6.4174 7.1863 15.598-29.805 14.867-32.542 15.14-37.296 3.7197-71.707 9.2478-108.29 18.369-9.7328 2.4262-25.468 16.521-30.922 14.442zm-13.124-87.466c-7.0833-2.7824-14.198-10.448-14.782-17.239-0.33179-4.2848 20.337-7.3028 26.788-8.5281 49.049-9.3165 99.866-25.521 147.57-25.911 11.045 0.0061 18.366 0.41671 21.054 2.9279 9.8147 9.1683 1.7712 13.226-7.2117 14.238-44.361 8.6996-90.558 12.488-130.32 23.978-9.5965 2.7732-18.374 5.3319-28.089 10.272-2.6125 1.3284-10.998 1.8373-15.008 0.26195z" stroke-width=".60354"/>
<g fill="none" stroke-linecap="round">
<path d="m52.373 26.867 196.51-1.0623" marker-end="url(#ArrowWideHeavy)" stroke="#000" stroke-miterlimit="4.1" stroke-width="5.984"/>
<g font-size="42.667px" stroke="#000000" stroke-miterlimit="1.8">
<text x="15.046835" y="99.338097" stroke-width="1.9507" style="line-height:0px" xml:space="preserve"><tspan x="15.046835" y="99.338097" fill="#000000" font-size="42.667px" stroke-linecap="round" stroke-miterlimit="1.8" stroke-width="1.9507">1</tspan></text>
<text x="17.289474" y="186.0696" font-family="'Liberation Serif'" stroke-width="1.9507" style="line-height:0px" xml:space="preserve"><tspan x="17.289474" y="186.0696" fill="#000000" font-size="42.667px">2</tspan></text>
<text x="17.168156" y="274.05933" font-family="'Liberation Serif'" stroke-width="1.9507" style="line-height:0px" xml:space="preserve"><tspan x="17.168156" y="274.05933" fill="#000000" font-size="42.667px">3</tspan></text>
</g>
</g>
</svg>
