<svg width="150pt" height="150pt" version="1.0" xmlns="http://www.w3.org/2000/svg">
<defs>
<marker id="ArrowWideHeavy" overflow="visible" markerHeight="1" markerWidth="1" orient="auto-start-reverse" preserveAspectRatio="xMidYMid" viewBox="0 0 1 1">
<path d="m1 0-3 3h-2l3-3-3-3h2z" fill="context-stroke" fill-rule="evenodd"/>
</marker>
</defs>
<g fill-rule="evenodd">
<path d="m71.897 29.208c6.5002 1.2592 13.424 2.786 18.278 6.0955 1.3978 0.85756 3.0872 2.4134 0.54102 6.119-2.6066 5.8053-3.702 9.9915-3.9835 14.592-2.8493 34.129-18.925 88.471-32.484 104.06-5.4737 7.1211-13.393 17.028-18.836 20.183-2.9061 1.6458-3.6037 0.12623 0.53106-5.2958 7.2491-9.7018 9.0945-13.801 13.976-22.729 16.268-31.544 21.032-67.889 24.255-90.786 1.0372-15.22-1.4155-22.754-3.9994-27.9-2.4135-2.9203-0.61414-4.7245 1.7224-4.335z" stroke-width=".87655"/>
<path d="m117.17 52.075c1.7049-1.3865 8.4065 1.6171 10.717 3.9579 2.4982 2.2839-0.68132 6.3901-1.7411 16.626-1.287 27.772-0.15142 48.149-0.15142 76.334 0.20736 8.5834-3.5218 18.41-4.8285 18.544-0.85632-0.81458-4.9677-4.0313-6.2026-13.626-0.0121-11.073 0.95998-19.66 1.0993-26.757 0-22.07 1.287-51.489-0.1514-60.886-0.29074-2.3103-1.4142-4.6207-2.3862-7.0138-1.1718-1.957 2.1091-4.6107 3.6452-7.1794z" stroke="#000" stroke-width=".38986px"/>
<path d="m160.45 31.724c1.7049-1.3865 8.4065 1.6171 10.717 3.9579 2.4982 2.2839-0.68132 6.3901-1.7411 16.626-1.287 27.772-0.15142 81.157-0.15142 109.34 0.20736 8.5834-3.5218 18.41-4.8285 18.544-0.85632-0.81459-4.9677-4.0313-6.2026-13.626-0.0121-11.073 0.95998-19.66 1.0993-26.757 0-22.07 1.287-84.498-0.1514-93.891-0.29074-2.3103-1.4142-4.6207-2.3862-7.0138-1.1718-1.957 2.1091-4.6107 3.6452-7.1794z" stroke="#000" stroke-width=".38986px"/>
</g>
<path d="m22.719 30.192v131.83" fill="#6f0" marker-end="url(#ArrowWideHeavy)" stroke="#000" stroke-width="4.9909"/>
<g fill="none" font-family="'Liberation Serif'" font-size="21.333px" stroke="#000000" stroke-linecap="round" stroke-miterlimit="1.8" stroke-width="1.9507">
<text x="72.75" y="17" style="line-height:0px" xml:space="preserve"><tspan x="72.75" y="17">1</tspan></text>
<text x="117.37868" y="16.624369" style="line-height:0px" xml:space="preserve"><tspan x="117.37868" y="16.624369">2</tspan></text>
<text x="158.4467" y="16.295942" style="line-height:0px" xml:space="preserve"><tspan x="158.4467" y="16.295942">3</tspan></text>
</g>
</svg>
