<svg version="1.1" viewBox="0 0 640 640" xmlns="http://www.w3.org/2000/svg">
<path d="m249.69 69.22q32.812-9.375 67.969 18.75 2.3438 7.0312-2.3438 28.125-9.375 44.531-11.719 103.12 30.469-7.0312 75-18.75 23.438-7.0312 32.812-9.375 28.125-4.6875 51.562 11.719 14.062 16.406-16.406 21.094-23.438 2.3438-60.938 11.719-44.531 7.0312-79.688 14.062 124.22 175.78 285.94 210.94 16.406 4.6875 18.75 9.375 0 4.6875-16.406 7.0312-86.719 7.0312-107.81 4.6875-25.781-2.3438-37.5-18.75-35.156-42.188-84.375-105.47-37.5-49.219-60.938-77.344 0 28.125 2.3438 124.22 2.3438 63.281 2.3438 103.12 0 77.344-16.406 82.031-16.406-4.6875-25.781-49.219 0-4.6875 2.3438-16.406 18.75-75 11.719-257.81-56.25 168.75-217.97 250.78-14.062 7.0312-16.406 4.6875-2.3438-2.3438 11.719-11.719 147.66-110.16 196.88-253.12-49.219 11.719-91.406 9.375-56.25-4.6875-18.75-16.406 72.656-11.719 133.59-25.781 2.3438-100.78-23.438-138.28-4.6875-9.375-4.6875-16.406z"/>
<ellipse cx="290.4" cy="576.8" rx="74.4" ry="57.6" fill="none" stroke="#000" stroke-dasharray="19.704, 19.704" stroke-linecap="round" stroke-miterlimit="9.5" stroke-width="3.284"/>
</svg>
