<svg version="1.1" viewBox="0 0 640 640" xmlns="http://www.w3.org/2000/svg">
<path d="m268.44 83.28q25.781-11.719 67.969 28.125 0 2.3438-4.6875 9.375-21.094 37.5-16.406 138.28 23.438 23.438 28.125 28.125 46.875-49.219 72.656-84.375 14.062-21.094 14.062-44.531 0-7.0312 2.3438-9.375 42.188 0 63.281 42.188 0 4.6875-9.375 9.375-18.75 7.0312-35.156 18.75-7.0312 4.6875-23.438 16.406-39.844 30.469-77.344 60.938 98.438 107.81 232.03 131.25 21.094 4.6875 23.438 9.375 2.3438 2.3438-14.062 7.0312-86.719 16.406-103.12 14.062-23.438 0-39.844-21.094-58.594-60.938-133.59-159.38 2.3438 58.594 7.0312 182.81 0 25.781 0 25.781 4.6875 56.25-28.125 89.062-4.6875 0-21.094-18.75-23.438-28.125-46.875-44.531-21.094-16.406 23.438-9.375 28.125 4.6875 32.812 2.3438 4.6875-4.6875 7.0312-98.438 2.3438-103.12 0-210.94 0-56.25-18.75-93.75-4.6875-11.719-2.3438-18.75zm-46.875 150q32.812 7.0312 42.188 30.469 0 2.3438-7.0312 11.719-14.062 16.406-18.75 30.469-44.531 135.94-159.38 194.53-11.719 7.0312-16.406 4.6875-2.3438-4.6875 9.375-14.062 110.16-91.406 138.28-217.97-4.6875-2.3438-44.531 14.062-32.812 11.719-39.844 11.719-63.281-21.094-28.125-28.125 77.344-7.0312 114.84-32.812 7.0312-4.6875 9.375-4.6875z"/>
<ellipse cx="301.2" cy="541.2" rx="102" ry="83.6" fill="none" stroke="#000" stroke-dasharray="19.704, 19.704" stroke-linecap="round" stroke-miterlimit="9.5" stroke-width="3.284"/>
</svg>
